<svg width="20" height="20" viewBox="0 0 20 20" fill="none" xmlns="http://www.w3.org/2000/svg">
<path d="M10 1.75C14.5563 1.75 18.25 5.44365 18.25 10C18.25 14.5563 14.5563 18.25 10 18.25C5.44365 18.25 1.75 14.5563 1.75 10C1.75 5.44365 5.44365 1.75 10 1.75Z" stroke="#656369" stroke-width="1.5" stroke-linecap="round" stroke-linejoin="round"/>
<path d="M9.99967 14.1693C12.3009 14.1693 14.1663 12.3038 14.1663 10.0026C14.1663 7.70142 12.3009 5.83594 9.99967 5.83594C7.69849 5.83594 5.83301 7.70142 5.83301 10.0026C5.83301 12.3038 7.69849 14.1693 9.99967 14.1693Z" stroke="#656369" stroke-width="1.5" stroke-linecap="round" stroke-linejoin="round"/>
<path d="M6.66699 6.66406L4.16699 4.16406" stroke="#656369" stroke-width="1.5" stroke-linejoin="round"/>
<path d="M13.333 6.66406L15.833 4.16406" stroke="#656369" stroke-width="1.5" stroke-linejoin="round"/>
<path d="M13.333 13.3359L15.833 15.8359" stroke="#656369" stroke-width="1.5" stroke-linejoin="round"/>
<path d="M6.66699 13.3359L4.16699 15.8359" stroke="#656369" stroke-width="1.5" stroke-linejoin="round"/>
<path d="M9.99967 5.83557L9.99805 2.5" stroke="#656369" stroke-width="1.5" stroke-linejoin="round"/>
<path d="M14.1669 10.003L17.5012 10.0031" stroke="#656369" stroke-width="1.5" stroke-linejoin="round"/>
<path d="M10 14.1641L9.99837 17.4997" stroke="#656369" stroke-width="1.5" stroke-linejoin="round"/>
<path d="M5.83333 9.99642L2.49674 9.99643" stroke="#656369" stroke-width="1.5" stroke-linejoin="round"/>
</svg>
