<svg width="20" height="20" viewBox="0 0 20 20" fill="none" xmlns="http://www.w3.org/2000/svg">
<path d="M7.70426 13.4801C8.142 13.7697 8.63751 13.9788 9.16992 14.0864L9.16748 18.2938C7.49208 18.1274 5.96259 17.466 4.72819 16.4562L7.70426 13.4801Z" fill="white"/>
<path d="M15.2759 16.453C14.0409 17.4641 12.5109 18.1273 10.8341 18.2938L10.8366 14.0848C11.3683 13.9764 11.8628 13.7668 12.2998 13.4769L15.2759 16.453Z" fill="white"/>
<path d="M5.91715 10.8361C6.02531 11.3689 6.23473 11.8648 6.52506 12.3026L3.5498 15.2778C2.53883 14.043 1.87546 12.5127 1.70898 10.8361H5.91715Z" fill="white"/>
<path d="M18.2926 10.8361C18.1263 12.5113 17.4638 14.0402 16.4543 15.2746L13.4774 12.2977C13.7662 11.861 13.9751 11.367 14.0828 10.8361H18.2926Z" fill="white"/>
<path d="M16.4543 4.73014C17.464 5.96456 18.1263 7.49401 18.2926 9.16943H14.0828C13.975 8.63827 13.7664 8.14387 13.4774 7.70703L16.4543 4.73014Z" fill="white"/>
<path d="M6.52506 7.70215C6.23454 8.1401 6.02536 8.63644 5.91715 9.16943H1.70898C1.87548 7.49258 2.5386 5.96185 3.5498 4.72689L6.52506 7.70215Z" fill="white"/>
<path d="M10.8341 1.71094C12.5108 1.87741 14.041 2.54078 15.2759 3.55176L12.2998 6.52783C11.8633 6.23835 11.3692 6.02836 10.8382 5.91992L10.8341 1.71094Z" fill="white"/>
<path d="M9.17155 5.91829C8.63864 6.0258 8.14238 6.23482 7.70426 6.52458L4.72819 3.5485C5.96254 2.53893 7.49223 1.87727 9.16748 1.71094L9.17155 5.91829Z" fill="white"/>
</svg>
